<svg width="694" height="295" viewBox="0 0 694 295" fill="none" xmlns="http://www.w3.org/2000/svg">
<rect x="5.00003" y="5" width="667" height="285" rx="15" fill="black" stroke="white" stroke-width="10"/>
<path d="M211.087 145.945L82.4019 221.205L87.9232 61.9525L211.087 145.945Z" fill="white"/>
<path d="M301.412 157L287.491 106.091H293.756L304.395 147.554H304.892L315.73 106.091H322.69L333.528 147.554H334.026L344.665 106.091H350.929L337.009 157H330.645L319.409 116.432H319.011L307.776 157H301.412ZM356.733 157H350.27L368.963 106.091H375.327L394.02 157H387.557L372.344 114.145H371.946L356.733 157ZM359.12 137.114H385.171V142.582H359.12V137.114ZM393.219 111.56V106.091H431.4V111.56H415.392V157H409.227V111.56H393.219ZM479.762 122H473.597C473.232 120.227 472.594 118.669 471.683 117.327C470.788 115.984 469.694 114.857 468.401 113.946C467.125 113.018 465.709 112.322 464.151 111.858C462.593 111.394 460.969 111.162 459.279 111.162C456.196 111.162 453.404 111.941 450.901 113.499C448.416 115.056 446.435 117.352 444.96 120.384C443.502 123.417 442.773 127.137 442.773 131.545C442.773 135.954 443.502 139.674 444.96 142.707C446.435 145.739 448.416 148.035 450.901 149.592C453.404 151.15 456.196 151.929 459.279 151.929C460.969 151.929 462.593 151.697 464.151 151.233C465.709 150.769 467.125 150.081 468.401 149.17C469.694 148.242 470.788 147.107 471.683 145.764C472.594 144.405 473.232 142.848 473.597 141.091H479.762C479.298 143.693 478.452 146.021 477.226 148.076C476 150.131 474.475 151.879 472.652 153.321C470.829 154.746 468.783 155.832 466.512 156.577C464.258 157.323 461.847 157.696 459.279 157.696C454.937 157.696 451.075 156.635 447.695 154.514C444.314 152.393 441.654 149.377 439.715 145.466C437.776 141.555 436.807 136.915 436.807 131.545C436.807 126.176 437.776 121.536 439.715 117.625C441.654 113.714 444.314 110.698 447.695 108.577C451.075 106.455 454.937 105.395 459.279 105.395C461.847 105.395 464.258 105.768 466.512 106.513C468.783 107.259 470.829 108.353 472.652 109.795C474.475 111.22 476 112.96 477.226 115.015C478.452 117.053 479.298 119.382 479.762 122ZM489.723 157V106.091H495.888V128.761H523.033V106.091H529.198V157H523.033V134.23H495.888V157H489.723Z" fill="white"/>
</svg>
